<?xml version="1.0" encoding="utf-8"?>
<!-- Generator: Adobe Illustrator 19.2.1, SVG Export Plug-In . SVG Version: 6.00 Build 0)  -->
<svg version="1.1" id="layer" xmlns="http://www.w3.org/2000/svg" xmlns:xlink="http://www.w3.org/1999/xlink" x="0px" y="0px"
	 viewBox="0 0 652 652" style="enable-background:new 0 0 652 652;" xml:space="preserve">
<style type="text/css">
	.st0{fill:none;stroke:#000000;stroke-width:0.9712;stroke-miterlimit:3.86;}
	.st1{fill:#FFED00;}
</style>
<rect x="26.8" y="224.2" width="139.9" height="143.6"/>
<rect x="26.8" y="224.2" class="st0" width="139.8" height="143.6"/>
<path class="st1" d="M137,290.7h11v27.2h6.8v-27.2h7.6v-62h-36.2l1.8,21.1h-13.1l-1.4,1.4l3,3.2l-3,3.2l3.1,3.2l-3.1,3.2l3,3.2
	l-3,3.3l3,3.2l-3,3.2l3,3.2l-3,3.2l3.1,3.2l-3.2,3.3l3,3.2l-3,3.1l3,3.2l-3,3.2l3,3.2l-3,3.2l2.9,3.1l-2.9,3.1l3,3.2l-3,3.2l2.8,3
	l-2.8,3l0.9,0.9H78.4l0.9-0.9l-2.8-3l2.8-3l-3-3.2l3-3.2l-2.9-3.1l2.9-3.1l-3-3.2l3-3.2l-3-3.1l3-3.2l-3-3.2l3-3.2l-3.1-3.2l3.2-3.3
	l-3-3.2l3-3.2l-3-3.2l3-3.2l-3-3.2l3-3.2l-3.1-3.2l3.1-3.2l-3-3.2l3-3.2l-1.4-1.4H63.6l1.8-21.1H31v61.6h42.9v9.6H38.3v4.2H74v23.2
	H31v35.9H72v-32.2h48.7v9.6H84.9v17.8h23.6v-4.2H90.9v-9.4h29.8v18.5h41.6v-36.1l-43.3,0.1l-0.3-0.1v-36.6h11v27.2h7.3L137,290.7z
	 M31,317.9h31.3v-4.2H31V317.9z M133.1,241.5c0-4.8,3.9-8.8,8.8-8.8c4.8,0,8.8,3.9,8.8,8.8c0,0,0,0,0,0c0,4.8-3.9,8.8-8.8,8.8
	C137.1,250.2,133.2,246.3,133.1,241.5C133.1,241.5,133.1,241.5,133.1,241.5 M137.6,236v11.5h2.4V243h2.2c1.3,0,1.8,0.3,2,1.3
	c0.1,0.5,0.2,1.1,0.2,1.6c0,0.5,0.1,1.1,0.3,1.5h2.5c-0.3-0.5-0.4-1.1-0.4-1.6v-0.4v-0.4c0-0.6,0-0.7-0.1-0.9c0-0.4-0.2-0.9-0.4-1.3
	c-0.3-0.5-0.7-0.8-1.3-0.9c1.1-0.5,1.8-1.6,1.7-2.8c0.1-1.1-0.5-2.1-1.4-2.7c-0.7-0.4-1.6-0.6-2.4-0.5L137.6,236z M92.7,234.2h6.4
	v-5.5h-6.4L92.7,234.2z M131.6,241.5c-0.3-5.7,4.1-10.6,9.8-10.9c5.7-0.3,10.6,4.1,10.9,9.8c0,0.4,0,0.7,0,1.1
	c0.3,5.7-4.1,10.6-9.8,10.9s-10.6-4.1-10.9-9.8C131.6,242.2,131.6,241.8,131.6,241.5 M140,238h2.4c1.4,0,2,0.5,2,1.6
	c0,0.5-0.2,1-0.6,1.3c-0.5,0.3-1,0.4-1.5,0.3H140L140,238z"/>
<path d="M37.6,402.6c-0.2-2.7-2-4.2-5.2-4.2c-2.8,0-4.5,1.2-4.5,3.1c-0.1,0.8,0.4,1.6,1.1,2c0.9,0.4,1.9,0.8,2.9,1l1.4,0.3l0.6,0.2
	l0.7,0.2c2.3,0.4,4.6,1.2,6.6,2.4c2,1.3,3.3,3.6,3.2,6c0,5.6-4.3,8.9-11.5,8.9s-11.7-3.6-11.8-9.9h5.9c-0.1,1.3,0.4,2.6,1.2,3.5
	c1.3,1.2,3.1,1.8,5,1.7c3.1,0,5-1.4,5-3.7c0-1.2-0.6-2-2.1-2.6c-0.7-0.3-1.4-0.5-2.4-0.8c-0.3-0.1,0.7,0.2-3-0.8
	c-1.2-0.3-3.2-1-4.1-1.3c-2.9-0.9-4.8-3.7-4.7-6.7c0-5.1,4.2-8.3,10.8-8.3c3.9,0,7,1.3,8.9,3.7c1.1,1.5,1.6,3.3,1.6,5.2L37.6,402.6z
	 M61.4,414.4c-0.4,2.7-1.9,4.1-4.3,4.1c-2.8,0-4.6-2.4-4.6-6.3c0-3.9,1.8-6.5,4.8-6.5c2-0.1,3.7,1.4,4,3.4h5.4
	c-0.5-4.7-4.1-7.5-9.4-7.5c-6.2,0-10.2,4.2-10.2,10.7c0,6.5,4.1,10.3,10.1,10.3c5.4,0,8.9-3,9.6-8.2L61.4,414.4z M75.6,394.4h-5.4
	V422h5.5v-9.8c-0.1-1.4,0-2.7,0.5-4c0.7-1.4,2.2-2.3,3.8-2.3c1.1-0.1,2.1,0.4,2.8,1.2c0.6,0.9,0.8,2,0.7,3.1v11.8h5.5v-12.7
	c0.2-1.7-0.2-3.5-1-5c-1.4-1.9-3.6-3-6-2.8c-2.5-0.1-4.9,1.1-6.3,3.3v-0.9v-0.4L75.6,394.4L75.6,394.4z M106.4,401.6
	c-0.5,0-1-0.1-1.2-0.1c-2.8-0.1-5.3,1.5-6.4,4.1V402h-5.2v20H99v-8.4c-0.1-1.5,0.1-3.1,0.7-4.5c0.9-1.7,2.7-2.7,4.5-2.6
	c0.7,0,1.4,0.1,2.2,0.2L106.4,401.6z M121.3,412.2c-1.2,0.7-2.5,1-3.8,1c-3.1,0.5-4.1,1.2-4.1,3c0,1.8,1.2,2.7,3.1,2.7
	c1.5,0,2.9-0.6,3.9-1.7c0.7-0.8,1-1.8,0.9-2.8V412.2z M121.7,422c-0.2-0.6-0.4-1.3-0.3-1.9c-1.8,1.7-4.3,2.6-6.8,2.5
	c-4.2,0-6.8-2.3-6.8-6c-0.1-2.4,1.4-4.5,3.6-5.2c1.6-0.6,3.4-0.9,5.1-1c4.3-0.5,4.8-0.8,4.8-2.4s-1.2-2.6-3.7-2.6
	c-2.5,0-3.5,0.8-3.8,3h-5.2c0.3-4.4,3.5-6.7,9.2-6.7c2.5-0.2,5,0.5,7.1,1.9c1.4,1.1,1.7,2.2,1.7,5.1l-0.1,8.2
	c-0.1,1.8,0.1,3.7,0.7,5.4L121.7,422z M149.2,402h-5.4v9.9c0.1,1.3-0.1,2.6-0.5,3.8c-0.7,1.5-2.2,2.4-3.8,2.3
	c-1.4,0.2-2.7-0.6-3.2-1.9c-0.3-1-0.4-2.1-0.3-3.1v-11h-5.5v12.7c-0.2,1.9,0.3,3.7,1.2,5.3c1.4,1.7,3.5,2.6,5.6,2.5
	c2.6,0.1,5.2-1.1,6.6-3.3v2.8h5.2V402z M164.1,405.8c-2.9,0-4.8,2.4-4.8,6s1.8,6.3,4.8,6.3c3,0,4.8-2.4,4.8-6.3
	C168.9,408.1,167,405.8,164.1,405.8 M159.5,404.5c1.5-2,3.8-3.2,6.3-3c5.1,0,8.5,4.2,8.5,10.3c0,6.5-3.6,10.8-8.9,10.8
	c-2.5,0.2-4.8-1-6.2-3.1v2.5h-5.2v-27.6h5.5V404.5z M191.3,409.9c-0.3-2.9-1.9-4.5-4.3-4.5c-2.5,0-4.5,2-4.5,4.5H191.3z
	 M196.6,415.8c-1.2,4.2-5,7-9.4,6.7c-6.2,0-10.2-4.2-10.2-10.5c0-6.1,4.2-10.5,10.1-10.5c5.9,0,9.9,4.4,9.9,11.1v0.8h-14.4
	c0.1,3.3,1.7,5.2,4.7,5.2c1.9,0.1,3.6-1,4.1-2.8L196.6,415.8z M205.7,402h-5.2v20h5.5v-10.3c-0.1-1.2,0.1-2.4,0.5-3.5
	c0.7-1.4,2.1-2.2,3.7-2.2c1.3-0.2,2.6,0.5,3.2,1.7c0.3,0.9,0.4,1.9,0.3,2.8V422h5.5v-12.6c0.2-1.8-0.2-3.6-1-5.2
	c-1.3-1.8-3.5-2.9-5.8-2.7c-2.6-0.1-5.2,1.1-6.7,3.3L205.7,402z M252.1,402h-5.6l-2.3,8.4c-0.5,1.8-0.8,3.3-1.4,6.5
	c-0.3-2.2-0.8-4.5-1.3-6.7l-2.1-8.2H234l-1.8,7.4c-0.6,2.5-1.2,5-1.5,7.6c-0.7-3.6-1-5.1-1.6-7.4l-2.1-7.6H221l6.4,20h5.7l2.2-8.7
	c0.5-2,0.9-4,1.2-6.1c0.5,2.9,0.7,4.2,1.2,6.1l2.3,8.7h5.6L252.1,402z M267.2,409.9c-0.3-2.9-1.9-4.5-4.3-4.5c-2.5,0-4.5,2-4.5,4.5
	H267.2z M272.5,415.8c-1.1,4.2-5.1,7-9.4,6.7c-6.2,0-10.2-4.2-10.2-10.5c0-6.1,4.2-10.5,10.1-10.5s9.9,4.4,9.9,11.1v0.8h-14.4
	c0.1,3.3,1.7,5.2,4.7,5.2c1.9,0.1,3.6-1,4.1-2.8L272.5,415.8z M289.3,401.7c-0.5,0-1-0.1-1.2-0.1c-2.8-0.1-5.3,1.5-6.4,4.1V402h-5.2
	v20h5.5v-8.4c-0.1-1.5,0.1-3.1,0.7-4.5c0.9-1.7,2.7-2.7,4.5-2.6c0.7,0,1.4,0.1,2.2,0.2L289.3,401.7z M310.7,402h-6.5l-5.6,5.8
	c-0.5,0.5-1,1.1-1.4,1.7v-1V408v-13.7h-5.5V422h5.5v-6.8l2.2-2.1l5.5,8.9h6.7l-8.4-12.6L310.7,402z M348.9,407.2h-11.6v4.4h6.1
	c0,3.4-2.7,6.2-6.2,6.2c-0.1,0-0.3,0-0.4,0c-4.8,0-7.6-3.5-7.6-9.5c0-6,2.8-9.5,7.4-9.5c2.9-0.3,5.6,1.8,6,4.7h5.8
	c-0.6-5.8-5.5-9.8-11.8-9.8c-8,0-13.5,6-13.5,14.7c0,8.3,5.3,14.2,12.9,14.2c3.2,0.2,6.4-1.2,8.4-3.8l0.6,3.1h3.8L348.9,407.2z
	 M365.8,412.2c-1.2,0.7-2.5,1-3.8,1c-3.1,0.5-4.1,1.2-4.1,3s1.2,2.7,3.1,2.7c1.5,0,2.9-0.6,3.9-1.7c0.7-0.8,1-1.8,0.9-2.8
	L365.8,412.2z M366.2,422c-0.2-0.6-0.3-1.3-0.3-1.9c-1.8,1.7-4.3,2.6-6.8,2.4c-4.2,0-6.8-2.3-6.8-6c-0.1-2.4,1.4-4.5,3.6-5.3
	c1.6-0.6,3.4-0.9,5.1-1c4.3-0.5,4.8-0.8,4.8-2.4s-1.2-2.6-3.7-2.6c-2.5,0-3.5,0.8-3.8,3h-5.2c0.3-4.4,3.5-6.7,9.2-6.7
	c2.5-0.2,5,0.5,7.1,1.9c1.4,1.1,1.7,2.2,1.7,5.1l-0.1,8.2c-0.1,1.8,0.1,3.7,0.7,5.4L366.2,422z M380.6,422h-5.5v-20h5.5V422z
	 M380.6,399.1h-5.5v-4.7h5.5V399.1z M401.6,407.8c0-1.4-0.5-2.7-1.4-3.8c-1.4-1.7-4-2.5-7.3-2.5c-5.6,0-8.8,2.2-8.8,6.1
	c-0.1,1.8,0.9,3.5,2.4,4.4c1.8,0.9,3.8,1.5,5.8,1.8c1,0.2,2,0.5,3,0.8c1,0.4,1.5,1,1.5,1.8c0,1.6-1.4,2.5-3.7,2.5
	c-2.7,0-4-1-4.2-3.3h-5.3c0.3,4.7,3.5,7,9.4,7s9.3-2.6,9.3-6.7c0.1-1.7-0.7-3.3-2.1-4.2c-1.8-1-3.7-1.7-5.7-1.9
	c-4.3-0.9-4.9-1.2-4.9-2.6c0-1.4,1.2-1.9,3.1-1.9c2.4,0,3.4,0.7,3.7,2.6L401.6,407.8z M416,405.8c-2.9,0-4.8,2.4-4.8,6
	s1.8,6.3,4.8,6.3s4.8-2.4,4.8-6.3C420.8,408.1,418.9,405.8,416,405.8 M411.5,404.5c1.5-2,3.8-3.2,6.3-3c5,0,8.5,4.2,8.5,10.3
	c0,6.5-3.6,10.8-8.9,10.8c-2.5,0.2-4.8-1-6.2-3.1v2.5H406v-27.6h5.5L411.5,404.5z M442.2,412.2c-1.2,0.7-2.5,1-3.8,1
	c-3.1,0.5-4.1,1.2-4.1,3s1.2,2.7,3.1,2.7c1.5,0,2.9-0.6,3.9-1.7c0.7-0.8,1-1.8,0.9-2.8V412.2z M442.6,422c-0.2-0.6-0.4-1.3-0.3-1.9
	c-1.8,1.7-4.3,2.6-6.8,2.5c-4.2,0-6.8-2.3-6.8-6c-0.1-2.4,1.4-4.5,3.6-5.3c1.6-0.6,3.4-0.9,5.1-1c4.3-0.5,4.8-0.8,4.8-2.4
	s-1.2-2.6-3.7-2.6s-3.5,0.8-3.8,3h-5.2c0.3-4.4,3.5-6.7,9.2-6.7c2.5-0.2,5,0.5,7.1,1.9c1.4,1.1,1.7,2.2,1.7,5.1l-0.1,8.2
	c-0.1,1.8,0.1,3.7,0.7,5.4L442.6,422z M464.9,414.4c-0.4,2.7-1.9,4.1-4.3,4.1c-2.8,0-4.6-2.4-4.6-6.3s1.8-6.5,4.8-6.5
	c2-0.1,3.7,1.4,4,3.4h5.4c-0.5-4.7-4.1-7.5-9.4-7.5c-6.2,0-10.2,4.2-10.2,10.7c0,6.5,4.1,10.3,10.1,10.3c5.4,0,8.9-3,9.6-8.2
	L464.9,414.4z M479.1,394.4h-5.5V422h5.5v-9.8c-0.1-1.4,0-2.7,0.5-4c0.7-1.4,2.2-2.3,3.8-2.3c1.1-0.1,2.1,0.4,2.8,1.2
	c0.6,0.9,0.8,2,0.7,3.1v11.8h5.5v-12.7c0.1-1.7-0.2-3.5-1-5c-1.4-1.9-3.6-3-6-2.8c-2.5-0.1-4.9,1.1-6.3,3.3v-0.9v-0.4L479.1,394.4
	L479.1,394.4z M532.1,407.2h-11.6v4.4h6.1c0,3.4-2.7,6.2-6.2,6.2c-0.1,0-0.3,0-0.4,0c-4.8,0-7.6-3.5-7.6-9.5c0-6,2.8-9.5,7.4-9.5
	c2.9-0.3,5.6,1.8,6,4.7h5.8c-0.6-5.8-5.5-9.8-11.8-9.8c-8,0-13.5,6-13.5,14.7c0,8.3,5.3,14.2,12.9,14.2c3.2,0.2,6.4-1.2,8.4-3.8
	l0.6,3.1h3.9V407.2z M542,402h-5.2v20h5.5v-10.8c-0.1-1,0.1-2.1,0.4-3c0.6-1.4,2-2.2,3.6-2.2c1.1-0.1,2.1,0.4,2.6,1.3
	c0.3,0.8,0.5,1.7,0.4,2.6V422h5.5v-10.8c-0.1-1,0-2.1,0.4-3.1c0.6-1.3,1.9-2.1,3.4-2.1c1.1-0.1,2.2,0.4,2.8,1.3
	c0.4,0.9,0.5,1.9,0.5,2.8V422h5.5v-13.4c0-4.5-2.4-7-6.8-7c-2.6-0.1-5.1,1.2-6.5,3.3c-1-2.2-3.2-3.5-5.6-3.3c-2.6-0.1-5,1.1-6.4,3.3
	L542,402z M582,405.8c-2.9,0-4.8,2.4-4.8,6s1.8,6.3,4.8,6.3s4.8-2.4,4.8-6.3C586.7,408.1,584.9,405.8,582,405.8 M577.4,404.5
	c1.5-2,3.8-3.2,6.3-3c5.1,0,8.5,4.2,8.5,10.3c0,6.5-3.6,10.8-8.9,10.8c-2.5,0.2-4.8-1-6.2-3.1v2.5h-5.2v-27.6h5.5L577.4,404.5z
	 M619.6,394.4h-5.9v10.5h-11.3v-10.6h-6.1V422h6.1v-12h11.3v12h6L619.6,394.4z"/>
<path d="M500,222.8h-47.4l-15.5,58.6l-0.3-0.3l-12.4-58.3h-46.7l-13.6,60.4l-0.8,0.5l-14.5-60.9h-48.4l42.8,139.3h45.5l10.6-61.1
	l1.6-0.2l11.9,60.9h45L500,222.8z M590.9,360.7h30.3v-73.6h-60.9v26.2h16.1c-1.8,8.4-7.4,15.4-17.1,15.5
	c-23.6,0.1-28.4-21.1-28.4-33.8c0-9.3,0-39.2,23.7-39.6c9.9-0.1,17.9,3,19.4,12.9h46.2c-2-30.2-26.4-49.9-67.6-49.9
	c-33.6,0-69.8,19.5-69.8,71.8c0,47,29.7,75.9,67.2,75.5c7.9,0,17.5-2,25-6.6c6.7-4.2,11.4-10.8,15.8-16.4V360.7z M185.1,319.4
	c0.4,44.5,51.5,47.4,59,47.9c31,2,69.1-9.2,70.9-45.4c1.3-26.7-14.8-34.9-34.5-40.4s-44.6-8.7-45.4-18.7c0-7.8,9-10.1,14.8-10.1
	c4.2,0,14.5,1.7,13.5,12.2h50.8c-1.2-33.9-36.5-44.7-66.7-44.7c-28.7,0-59.2,10.5-60,45c-0.6,28.2,15.6,34.4,37.7,40.6
	c23.9,6.8,38.3,6.8,39.9,15.8c2,10.7-8.8,10.9-15.8,10.9c-8,0-15.3-9.7-15.7-13.1L185.1,319.4z"/>
</svg>
